<?xml version="1.0" standalone="no"?>
<!DOCTYPE svg PUBLIC "-//W3C//DTD SVG 20010904//EN"
 "http://www.w3.org/TR/2001/REC-SVG-20010904/DTD/svg10.dtd">
<svg version="1.0" xmlns="http://www.w3.org/2000/svg"
 width="500.000000pt" height="500.000000pt" viewBox="0 0 500.000000 500.000000"
 preserveAspectRatio="xMidYMid meet">

<g transform="translate(0.000000,500.000000) scale(0.100000,-0.100000)"
fill="#000000" stroke="none">
<path d="M350 4988 c0 -7 -25 -33 -54 -58 -30 -25 -60 -55 -67 -67 -7 -13 -20
-23 -29 -23 -8 0 -24 -13 -33 -30 -10 -16 -22 -30 -26 -30 -4 0 -18 -10 -31
-22 -16 -15 -25 -18 -28 -10 -2 7 -11 12 -19 12 -12 0 -13 -3 -4 -14 9 -11 4
-22 -24 -51 l-35 -38 0 -2328 0 -2329 180 0 c153 0 180 2 180 15 0 8 9 41 19
72 17 49 31 172 35 297 1 16 7 31 14 34 15 5 10 -96 -10 -223 -7 -38 -12 -98
-12 -132 l-1 -63 63 0 62 0 0 45 c0 25 7 57 16 70 9 14 20 44 25 67 24 109 29
119 44 104 13 -13 33 -94 51 -206 12 -79 13 -80 148 -80 100 0 117 2 102 13
-19 14 -59 142 -82 267 -9 47 -24 121 -34 165 -10 44 -20 112 -22 150 -3 67
-2 70 21 73 18 3 22 0 18 -11 -3 -9 1 -18 9 -21 25 -9 27 -8 22 19 -4 17 0 26
11 29 39 11 132 26 203 32 56 4 78 10 83 22 3 8 3 47 0 86 -3 39 -7 96 -10
126 -5 77 -54 353 -64 363 -4 4 -37 -23 -72 -61 -35 -38 -69 -71 -75 -73 -5
-2 -24 -24 -41 -49 -17 -25 -55 -73 -84 -107 -30 -34 -67 -82 -82 -107 -31
-50 -51 -60 -41 -21 5 19 3 25 -7 23 -8 -2 -12 3 -10 12 13 49 12 80 -3 86 -9
3 -16 17 -16 30 0 13 -4 24 -10 24 -5 0 -10 9 -10 20 0 31 -17 24 -24 -11 -6
-30 -26 -32 -26 -3 0 8 -4 14 -9 14 -14 0 -32 58 -19 62 6 2 12 25 13 50 1 36
-2 45 -13 41 -7 -3 -17 -15 -22 -27 -7 -20 -8 -20 -20 7 -7 15 -17 27 -22 27
-17 0 -19 -29 -4 -81 8 -30 15 -63 16 -74 4 -52 -2 -120 -11 -131 -5 -7 -8
-31 -5 -53 3 -25 1 -41 -5 -41 -6 0 -9 -6 -6 -12 2 -7 -1 -27 -8 -44 -7 -18
-9 -37 -5 -45 5 -7 4 -21 -1 -30 -5 -10 -9 -27 -9 -39 0 -12 -4 -18 -10 -15
-6 4 -11 -9 -11 -32 -3 -59 -7 -105 -13 -137 -3 -16 -1 -35 5 -42 8 -10 9 -14
0 -14 -6 0 -11 -10 -11 -22 0 -12 -3 -18 -7 -14 -5 4 -6 34 -5 67 l4 59 -31 0
c-30 0 -31 1 -31 48 1 54 15 176 29 242 6 25 14 101 20 170 6 84 18 151 35
205 14 44 26 94 26 110 1 62 39 106 132 155 47 25 90 42 93 38 4 -4 -7 -31
-26 -59 l-33 -52 -13 29 -12 29 -1 -42 c0 -23 4 -44 8 -47 18 -11 126 128 118
150 -4 11 7 21 40 35 49 22 73 19 81 -9 2 -10 16 -26 31 -35 29 -17 30 -17
-28 -21 -16 -1 -18 -22 -7 -71 l7 -30 -18 24 c-47 66 -47 67 -75 48 l-26 -17
26 -27 c14 -16 47 -60 74 -100 27 -39 53 -74 58 -77 5 -4 -12 -29 -37 -56
l-47 -50 -26 32 c-14 17 -25 38 -22 47 2 9 -6 31 -17 49 -18 30 -22 32 -36 18
-11 -12 -12 -20 -5 -34 6 -11 8 -22 5 -25 -3 -3 -1 -14 4 -24 10 -17 12 -16
22 7 10 25 10 25 6 -4 -3 -22 3 -36 25 -57 38 -37 38 -61 2 -57 -22 2 -33 16
-69 88 -24 47 -46 97 -49 112 -7 31 -20 36 -29 13 -3 -9 7 -37 23 -63 16 -26
32 -58 36 -72 7 -22 6 -23 -9 -11 -15 12 -16 12 -10 -5 4 -10 13 -26 20 -34 7
-8 28 -40 48 -70 20 -30 36 -47 36 -37 0 9 6 17 13 17 19 1 63 42 80 75 8 17
31 47 50 68 34 38 34 38 40 155 5 124 4 121 81 266 14 27 24 51 21 54 -10 10
-39 -26 -62 -76 l-23 -53 -31 18 c-37 22 -69 51 -69 62 0 5 30 17 68 27 37 9
91 28 120 41 29 13 78 28 110 34 64 11 254 104 317 155 63 50 137 91 176 97
l36 5 -5 -48 c-4 -41 1 -57 33 -116 88 -160 184 -266 278 -309 85 -39 272 -75
468 -91 l86 -7 7 -591 c4 -325 7 -600 7 -611 1 -48 24 -185 31 -185 5 0 6 10
3 23 -13 60 -29 484 -27 742 2 268 15 577 28 651 l6 32 171 4 c185 6 244 19
348 80 61 36 169 137 223 209 25 33 49 59 53 58 15 -4 43 66 43 109 0 51 -12
78 -48 110 l-27 24 30 -7 c59 -12 153 -64 207 -112 42 -38 71 -55 124 -71 38
-12 100 -42 138 -67 40 -26 81 -45 97 -45 35 0 74 -15 98 -37 36 -33 52 -126
58 -318 5 -166 7 -182 27 -202 11 -12 37 -40 56 -63 62 -73 70 -80 88 -80 30
0 38 12 111 146 68 128 111 222 111 247 0 7 -29 24 -65 37 -37 14 -67 32 -70
41 -3 10 -17 34 -30 53 -13 20 -19 36 -13 36 13 0 166 -88 173 -100 3 -5 35
-23 70 -42 l65 -33 0 -48 c0 -31 7 -58 19 -75 34 -49 72 -192 146 -544 33
-153 33 -148 -15 -148 -46 0 -47 -4 -30 -120 5 -36 12 -99 16 -140 3 -41 9
-78 13 -83 4 -4 28 -3 54 2 33 6 47 5 47 -3 1 -62 13 -190 22 -223 l11 -43 48
0 49 0 0 2500 0 2500 -29 0 c-20 0 -36 -9 -49 -25 -11 -14 -25 -25 -31 -25 -6
0 -11 -7 -11 -15 0 -8 -4 -15 -9 -15 -11 0 -151 -136 -151 -147 0 -5 -14 -14
-31 -22 -27 -12 -33 -12 -41 0 -6 10 -7 7 -3 -10 5 -15 3 -21 -3 -17 -6 3 -13
-2 -16 -12 -9 -26 -65 -57 -79 -43 -6 6 -37 11 -69 11 -32 0 -58 4 -58 10 0 6
-4 10 -10 10 -5 0 -10 -13 -10 -30 0 -28 -2 -30 -40 -30 -33 0 -40 -3 -40 -20
0 -15 -7 -20 -25 -20 -18 0 -23 4 -19 15 4 8 13 15 20 15 8 0 19 12 24 26 6
14 14 23 19 20 5 -3 15 14 22 39 7 25 18 45 24 45 5 0 16 12 23 28 13 29 83
112 94 112 11 0 58 49 58 60 0 6 5 10 10 10 6 0 10 7 10 15 0 13 -37 15 -271
15 l-271 0 -38 -40 c-21 -22 -44 -40 -52 -40 -14 0 -48 -34 -48 -49 0 -5 -13
-15 -28 -22 -16 -7 -34 -25 -41 -41 -7 -15 -19 -28 -26 -28 -8 0 -19 -9 -25
-20 -6 -11 -17 -20 -25 -20 -8 0 -15 -5 -15 -10 0 -6 -11 -16 -25 -22 -14 -6
-25 -17 -25 -25 0 -7 -7 -13 -15 -13 -8 0 -19 -9 -25 -20 -6 -11 -15 -20 -21
-20 -14 0 24 49 39 50 6 0 12 9 12 19 0 11 14 32 31 48 16 15 38 37 47 47 9
11 32 34 50 52 17 18 32 36 32 42 0 5 11 14 25 20 14 6 25 17 25 24 0 7 7 25
14 41 l15 27 -295 0 c-198 0 -294 -3 -294 -10 0 -15 -134 -150 -149 -150 -8 0
-7 -5 3 -16 9 -8 16 -18 16 -22 0 -3 -5 -1 -12 6 -7 7 -19 12 -27 12 -11 0
-10 -4 4 -20 28 -31 2 -24 -28 8 -41 43 -53 50 -88 55 -19 3 -35 6 -36 7 -2 2
-9 3 -15 4 -7 0 -21 19 -32 41 -10 22 -23 43 -28 46 -6 4 -5 9 3 12 8 3 -4 3
-26 0 -22 -3 -48 -10 -57 -15 -20 -10 -24 -44 -6 -50 7 -3 5 -7 -6 -11 -10 -4
-15 -3 -11 3 4 6 -7 10 -24 10 -16 0 -33 5 -37 12 -5 7 -2 9 9 5 11 -4 14 -2
10 9 -3 9 -12 12 -26 8 -15 -5 -19 -3 -14 9 5 13 -9 15 -99 12 -71 -2 -102 0
-97 8 10 17 -17 -1 -79 -53 -20 -17 -38 -27 -40 -23 -3 5 -3 2 -2 -5 6 -21
-19 -52 -41 -52 -15 0 -17 2 -7 9 10 6 7 10 -11 15 -31 7 -77 -8 -77 -27 0 -7
-16 -19 -36 -26 -31 -11 -38 -11 -53 3 -30 27 -151 10 -151 -20 0 -18 8 -18
26 1 9 8 21 15 27 15 7 0 4 -5 -5 -11 -10 -5 -18 -17 -18 -24 0 -17 -9 -19
-44 -5 -15 5 -28 6 -31 0 -3 -5 -13 -6 -21 -3 -9 3 -19 1 -23 -6 -5 -8 -15 -9
-32 -2 -13 5 -17 10 -9 10 17 1 51 36 44 44 -3 3 15 15 39 27 34 17 43 27 40
41 -4 13 0 19 11 19 9 0 16 4 16 9 0 4 13 24 30 42 16 19 30 37 30 42 0 4
-175 7 -390 7 -214 0 -390 -4 -390 -8 0 -5 -11 -14 -25 -20 -33 -15 -45 -25
-119 -99 -34 -35 -69 -63 -79 -63 -12 0 -17 -8 -17 -25 0 -22 -3 -25 -27 -19
-21 4 -24 3 -14 -5 12 -8 10 -12 -12 -22 -15 -7 -27 -16 -27 -21 0 -5 -9 -7
-19 -3 -16 5 -18 2 -14 -15 6 -23 0 -25 -28 -10 -25 14 -25 40 1 40 13 0 20 7
20 19 0 11 14 31 30 44 17 14 30 28 30 31 0 9 92 96 102 96 16 0 35 24 40 53
l5 27 -428 0 c-336 0 -429 -3 -429 -12z m2570 -48 c17 -11 13 -15 -22 -24 -30
-7 -36 2 -16 22 14 14 18 15 38 2z m-10 -54 c0 -3 -4 -8 -10 -11 -5 -3 -10 -1
-10 4 0 6 5 11 10 11 6 0 10 -2 10 -4z m40 -36 c0 -13 -14 -19 -24 -11 -6 5
-20 11 -31 14 -11 3 -3 5 18 4 20 -1 37 -4 37 -7z m2018 -70 c-7 -11 -16 -20
-20 -20 -5 0 -3 9 4 20 7 11 16 20 20 20 5 0 3 -9 -4 -20z m-3038 -40 c0 -5
-9 -14 -20 -20 -22 -12 -27 -1 -8 18 14 14 28 16 28 2z m70 -10 c-19 -12 -30
-12 -30 -1 0 10 31 20 40 14 2 -2 -2 -8 -10 -13z m-53 -46 c-3 -3 -12 -4 -19
-1 -8 3 -5 6 6 6 11 1 17 -2 13 -5z m-1067 -74 c0 -5 -5 -10 -11 -10 -5 0 -7
5 -4 10 3 6 8 10 11 10 2 0 4 -4 4 -10z m2722 -12 c-6 -6 -15 -8 -19 -4 -4 4
-1 11 7 16 19 12 27 3 12 -12z m-1819 -8 c-3 -12 -8 -19 -11 -16 -5 6 5 36 12
36 2 0 2 -9 -1 -20z m34 -32 c-3 -8 -6 -5 -6 6 -1 11 2 17 5 13 3 -3 4 -12 1
-19z m-972 -8 c-3 -5 -13 -10 -21 -10 -8 0 -14 5 -14 10 0 6 9 10 21 10 11 0
17 -4 14 -10z m2665 -50 c0 -5 -5 -10 -11 -10 -5 0 -7 5 -4 10 3 6 8 10 11 10
2 0 4 -4 4 -10z m-1750 -50 c0 -5 -5 -10 -11 -10 -5 0 -7 5 -4 10 3 6 8 10 11
10 2 0 4 -4 4 -10z m50 6 c0 -2 -7 -7 -16 -10 -8 -3 -12 -2 -9 4 6 10 25 14
25 6z m-30 -46 c0 -5 -2 -10 -4 -10 -3 0 -8 5 -11 10 -3 6 -1 10 4 10 6 0 11
-4 11 -10z m980 -137 c0 -39 -10 -51 -66 -79 -46 -22 -47 -23 -14 -17 43 7 69
28 87 71 7 17 17 32 21 32 11 0 47 -39 61 -68 19 -37 55 -53 116 -53 40 0 70
-8 105 -25 26 -13 54 -24 62 -24 29 0 58 -32 64 -71 5 -29 11 -39 25 -39 10 0
21 -4 24 -10 3 -5 -2 -10 -12 -10 -13 0 -9 -5 11 -15 16 -9 35 -14 42 -11 7 3
10 -2 7 -12 -2 -9 8 -53 23 -97 25 -78 47 -245 32 -245 -4 0 -6 -10 -4 -22 2
-13 9 -22 15 -21 6 2 15 -12 20 -30 9 -31 9 -31 10 -4 1 27 23 38 36 17 4 -6
15 -6 31 0 90 35 121 -17 66 -109 -15 -25 -43 -86 -61 -136 -74 -201 -115
-264 -182 -288 -10 -3 -18 -22 -22 -51 -4 -25 -16 -71 -29 -103 -20 -52 -22
-83 -27 -293 -6 -228 -7 -237 -32 -285 -43 -84 -82 -100 -358 -147 -99 -17
-471 -37 -404 -22 13 3 28 13 35 23 7 10 24 21 38 25 17 5 21 4 11 -2 -21 -15
3 -24 44 -16 l35 6 -20 25 c-12 16 -20 41 -20 64 0 58 8 69 47 69 34 0 212 55
223 69 3 3 21 15 40 25 61 34 202 152 236 198 24 32 34 66 11 38 -21 -27 -91
-77 -117 -84 -14 -4 -56 -17 -93 -29 -51 -16 -73 -18 -85 -10 -10 5 -31 8 -48
6 -25 -4 -35 0 -47 18 -13 18 -19 20 -31 10 -19 -16 -28 0 -21 36 l7 28 -21
-25 -20 -25 -15 35 c-8 19 -16 33 -16 30 -1 -3 -3 -16 -6 -28 -2 -13 -11 -33
-19 -45 -15 -21 -15 -21 -15 11 0 17 -4 32 -10 32 -5 0 -10 -7 -10 -15 0 -8
-4 -15 -10 -15 -5 0 -10 5 -10 10 0 6 -3 9 -7 9 -21 -3 -31 3 -36 21 -4 16
-13 19 -54 17 -61 -3 -84 17 -89 76 -4 47 16 77 52 77 19 0 22 4 20 35 -2 24
1 35 10 35 8 0 11 -6 8 -15 -7 -17 1 -17 168 -12 125 4 111 25 -21 31 -45 2
-78 9 -89 18 -9 8 -25 18 -35 21 -19 7 -33 34 -23 44 3 3 14 -1 23 -9 27 -22
53 -30 53 -14 0 45 149 48 358 7 23 -5 42 -5 42 -2 0 18 -103 50 -180 57 -61
5 -90 12 -104 26 -12 11 -26 16 -36 11 -8 -4 -31 -6 -50 -5 -19 1 -51 3 -71 3
l-35 1 10 34 c7 22 17 34 29 34 21 0 34 27 19 42 -6 6 -15 3 -25 -12 -10 -15
-23 -20 -43 -18 -24 2 -30 -1 -32 -19 -2 -15 -10 -23 -22 -23 -12 0 -17 5 -14
13 8 21 -46 13 -71 -11 -12 -11 -34 -22 -50 -24 -28 -3 -30 -1 -36 44 -7 44
-35 97 -51 98 -5 0 -8 6 -8 14 0 8 -6 21 -12 28 -18 19 -40 77 -45 121 -4 28
-10 37 -24 37 -11 0 -16 -5 -13 -14 6 -17 -23 -32 -68 -35 -25 -1 -22 -21 3
-21 11 0 17 -4 14 -10 -12 -20 -34 -9 -51 25 -13 28 -19 33 -30 24 -22 -18
-16 -44 23 -98 1 -2 11 2 20 10 16 12 17 12 6 -2 -10 -12 -10 -24 -3 -46 7
-20 8 -44 1 -72 -9 -41 -6 -76 9 -96 4 -5 7 -21 6 -35 -1 -14 2 -30 6 -36 5
-6 2 -23 -5 -37 l-14 -27 -11 38 c-6 20 -16 67 -22 105 -10 54 -16 67 -30 67
-27 0 -35 20 -11 27 23 6 28 39 12 89 -5 16 -12 50 -16 77 -6 48 -19 61 -28
30 -3 -10 -3 18 1 62 3 44 5 101 5 128 0 26 4 47 9 47 4 0 8 -5 8 -11 0 -18
23 -4 26 17 2 10 -1 37 -6 59 -7 30 -6 43 6 56 16 18 19 49 4 49 -6 0 1 18 15
40 14 23 23 45 20 50 -3 4 8 14 25 22 16 7 30 17 30 21 0 5 4 6 9 2 5 -3 13
-1 16 5 4 6 15 8 25 5 12 -4 24 2 34 17 9 13 27 23 41 23 27 1 32 -14 13 -34
-11 -10 -7 -12 16 -9 22 2 30 9 33 28 2 13 9 28 16 32 9 5 7 11 -5 20 -17 12
-16 16 5 60 14 30 30 50 45 54 12 3 22 12 22 20 0 8 4 14 9 14 5 0 11 9 14 20
6 22 26 27 28 8 1 -7 4 -2 9 12 l8 25 11 -30 c6 -17 20 -36 31 -43 23 -14 27
0 5 18 -8 7 -15 29 -15 50 0 21 7 43 15 50 12 10 15 10 15 -1 0 -8 23 -24 51
-36 28 -12 48 -27 44 -32 -8 -15 39 -24 80 -17 35 7 69 43 76 81 3 11 22 29
45 40 23 11 49 28 58 38 25 24 36 21 36 -10z m-222 -70 c-13 -16 -29 -16 -51
0 -15 10 -12 12 22 12 32 1 38 -2 29 -12z m62 4 c0 -8 -8 -21 -17 -29 -24 -21
-63 -32 -63 -19 0 6 6 11 14 11 7 0 21 11 30 25 18 27 36 33 36 12z m-140 -12
c0 -12 -19 -12 -23 0 -4 9 -1 12 9 8 7 -3 14 -7 14 -8z m-549 -268 c-8 -8 -11
-7 -11 4 0 20 13 34 18 19 3 -7 -1 -17 -7 -23z m-101 -329 c0 -10 5 -18 12
-18 9 0 9 -3 0 -12 -16 -16 -25 -4 -29 40 -2 26 0 33 7 22 5 -8 10 -23 10 -32z
m-149 -39 c-21 -20 -21 -20 -21 5 0 29 33 54 38 29 2 -8 -6 -24 -17 -34z m26
-171 c-3 -8 -6 -5 -6 6 -1 11 2 17 5 13 3 -3 4 -12 1 -19z m53 -123 c0 -5 -5
-3 -10 5 -5 8 -10 20 -10 25 0 6 5 3 10 -5 5 -8 10 -19 10 -25z m73 -52 c3
-16 8 -37 11 -48 6 -19 -8 -54 -17 -45 -11 11 -19 120 -9 120 5 0 12 -12 15
-27z m562 -192 c3 -5 -9 -23 -26 -39 -22 -21 -29 -34 -23 -43 5 -8 10 -27 11
-44 2 -41 3 -43 13 -20 8 18 9 17 9 -8 1 -22 -3 -28 -16 -25 -10 1 -23 -1 -29
-5 -15 -9 -75 3 -69 13 3 4 -2 13 -10 20 -35 29 -9 81 65 130 47 31 65 36 75
21z m-404 -260 c-1 -9 -3 -88 -5 -176 -6 -203 -15 -295 -27 -273 -5 9 -6 126
-2 275 6 235 8 255 20 224 8 -19 14 -42 14 -50z m529 -581 c0 -5 -9 -10 -20
-10 -11 0 -20 5 -20 10 0 6 9 10 20 10 11 0 20 -4 20 -10z m-230 -30 c0 -5 7
-10 15 -10 8 0 15 -5 15 -11 0 -6 6 -9 14 -6 8 3 20 -1 26 -9 11 -12 7 -14
-23 -14 -50 0 -98 11 -91 21 3 5 14 5 24 -1 16 -8 18 -8 14 5 -4 8 -10 15 -15
15 -5 0 -9 5 -9 10 0 6 7 10 15 10 8 0 15 -4 15 -10z m-432 -12 c7 -7 12 -22
12 -34 0 -12 5 -24 11 -26 13 -4 22 -75 10 -82 -5 -3 -6 -16 -4 -29 3 -14 -2
-29 -12 -37 -16 -13 -17 -12 -10 19 5 24 4 31 -4 27 -15 -10 -19 6 -24 97 -4
78 -1 87 21 65z m1212 -48 c0 -5 -5 -10 -11 -10 -5 0 -7 5 -4 10 3 6 8 10 11
10 2 0 4 -4 4 -10z m-20 -24 c0 -3 -4 -8 -10 -11 -5 -3 -10 -1 -10 4 0 6 5 11
10 11 6 0 10 -2 10 -4z m-56 -40 c-22 -17 -32 -3 -13 20 8 10 15 12 23 4 7 -7
4 -14 -10 -24z m286 -3 c0 -9 7 -25 17 -35 9 -10 13 -21 10 -25 -4 -4 -14 2
-23 13 -14 18 -15 18 -8 -5 5 -19 3 -23 -10 -18 -10 4 -16 1 -16 -7 0 -7 -11
-18 -25 -24 -22 -10 -26 -9 -40 18 -19 37 -13 49 38 82 43 28 57 28 57 1z
m-677 -47 c-5 -90 -20 -112 -21 -31 -1 40 -6 71 -13 76 -8 5 -6 8 7 11 29 7
31 3 27 -56z m-56 -8 c1 -35 -3 -70 -8 -78 -6 -11 -9 -3 -10 25 0 22 -3 57 -4
78 -3 25 0 37 9 37 8 0 12 -20 13 -62z m117 44 c-1 -7 -2 -38 -4 -69 l-2 -58
-8 40 c-5 22 -6 50 -3 63 3 13 0 22 -7 22 -6 0 -8 5 -5 11 9 13 30 6 29 -9z
m274 6 c17 -17 15 -25 -8 -31 -11 -3 -20 -1 -20 3 0 5 -3 15 -6 24 -7 19 16
22 34 4z m-938 -154 c-9 -10 -7 -11 9 -7 14 4 23 -1 28 -13 3 -11 11 -22 17
-27 7 -5 5 -12 -6 -21 -21 -16 -23 -33 -5 -39 8 -3 7 -10 -7 -26 -19 -21 -19
-21 -33 -1 -12 17 -29 76 -57 195 l-7 30 35 -39 c27 -29 33 -42 26 -52z m1157
51 c1 -19 -3 -33 -7 -30 -5 3 -11 1 -15 -5 -8 -12 -45 5 -45 21 0 15 23 36 46
42 10 2 19 5 20 6 0 0 0 -15 1 -34z m-1237 0 c0 -28 -15 -33 -24 -8 -4 9 -1
20 6 25 18 11 18 11 18 -17z m1163 -30 c17 -35 24 -81 9 -59 -4 6 -17 14 -29
18 -26 8 -32 -11 -11 -32 9 -9 9 -12 -3 -12 -16 0 -53 55 -45 68 3 5 19 7 37
4 l31 -5 -17 27 c-14 21 -15 26 -3 26 8 0 22 -16 31 -35z m-107 -38 c18 7 39
-40 29 -64 -5 -10 -7 -24 -6 -30 2 -16 -2 -16 -44 1 -19 8 -35 20 -35 25 0 6
-5 11 -10 11 -6 0 -4 -15 5 -37 10 -23 12 -40 6 -46 -6 -6 -15 2 -25 24 -12
28 -15 30 -15 12 -1 -13 -7 -23 -16 -23 -8 0 -15 -7 -15 -15 0 -29 -18 -15
-23 18 -5 32 11 64 20 40 8 -21 20 -15 27 12 4 14 11 25 16 25 16 0 50 33 50
49 0 11 3 12 11 4 6 -6 18 -9 25 -6z m239 -7 c-3 -5 -11 -10 -16 -10 -6 0 -7
5 -4 10 3 6 11 10 16 10 6 0 7 -4 4 -10z m-613 -73 c-1 -28 -5 -78 -8 -110 -4
-43 -1 -65 10 -82 18 -28 21 -61 6 -70 -6 -3 -10 4 -10 17 0 13 -7 37 -16 53
-10 20 -17 62 -19 124 -2 75 -6 97 -20 107 -15 11 -14 13 12 16 45 6 49 1 45
-55z m86 46 c5 -10 6 -27 1 -38 -10 -26 -10 -119 0 -172 5 -24 7 -43 5 -43
-13 0 -26 55 -31 128 -5 94 -8 113 -20 111 -24 -4 -25 3 -3 16 33 19 38 18 48
-2z m-174 -55 c-4 -29 -7 -55 -7 -58 -2 -18 18 -110 30 -138 8 -19 9 -31 4
-27 -6 3 -11 12 -11 19 0 7 -8 21 -19 30 -14 13 -20 38 -26 102 -5 68 -11 87
-27 98 -19 13 -19 14 -1 19 10 3 28 5 41 6 22 1 22 -1 16 -51z m653 35 c6 -16
-35 -23 -41 -8 -3 8 0 16 7 19 16 6 30 2 34 -11z m-97 -78 c0 -2 -7 -5 -15 -9
-9 -3 -15 0 -15 9 0 9 6 12 15 9 8 -4 15 -7 15 -9z m-76 -16 c-3 -6 0 -15 7
-20 11 -6 10 -9 -5 -15 -11 -4 -21 -2 -27 7 -13 20 -11 27 9 32 9 3 18 5 20 6
2 0 0 -4 -4 -10z m1220 -50 c68 -27 66 -26 55 -58 l-10 -29 -50 13 c-27 7 -49
9 -49 4 0 -5 15 -30 34 -56 33 -47 33 -49 28 -135 -4 -84 -3 -89 33 -163 31
-63 43 -77 66 -82 34 -6 35 -10 12 -35 -22 -25 -48 -23 -66 6 -9 13 -38 47
-65 75 l-49 51 -5 153 c-4 122 -10 164 -27 212 -39 106 -39 99 5 80 22 -9 61
-26 88 -36z m121 -113 c14 -36 25 -47 66 -66 27 -13 49 -26 49 -29 0 -3 -17
-15 -38 -26 l-37 -20 -1 -70 c-1 -87 -11 -132 -31 -140 -31 -11 -36 9 -33 134
1 62 -1 81 -10 76 -7 -5 -10 -19 -6 -39 4 -22 1 -38 -10 -51 -14 -18 -15 -13
-11 72 4 86 3 95 -21 129 -15 22 -19 35 -11 32 56 -21 59 -21 59 11 0 44 16
38 35 -13z m-3399 -78 c-4 -13 -9 -38 -13 -55 -6 -35 -23 -45 -23 -14 0 10 -3
32 -6 49 -5 24 -2 31 12 35 34 9 36 7 30 -15z m3519 -115 c-14 -31 -27 -59
-29 -61 -2 -2 -6 15 -8 38 -3 35 0 44 22 60 39 30 42 24 15 -37z m-3795 -364
c0 -14 -17 -10 -23 5 -4 10 -1 13 9 9 7 -3 14 -9 14 -14z m365 -57 c-4 -22 0
-33 25 -57 51 -49 43 -60 -62 -75 -149 -20 -174 -22 -160 -12 7 5 10 16 6 26
-4 11 2 26 16 41 23 24 23 25 5 45 -10 11 -15 23 -12 26 4 4 14 -3 24 -15 17
-20 20 -20 47 -6 15 8 41 15 56 15 19 0 29 6 33 20 8 32 30 25 22 -8z m-385
-327 c0 -7 6 -18 14 -24 10 -9 13 -26 10 -54 -5 -48 -33 -119 -44 -112 -13 8
-22 121 -15 175 6 42 9 49 21 39 8 -6 14 -17 14 -24z m4190 -90 c0 -8 6 -15
14 -15 10 0 17 -17 21 -55 4 -30 8 -58 9 -61 0 -4 -12 -8 -27 -10 -22 -2 -30
3 -38 23 -6 18 -6 30 2 39 7 9 9 29 5 54 -4 25 -2 40 4 40 5 0 10 -7 10 -15z
m-4464 -144 c-3 -38 -13 -84 -21 -102 -14 -33 -14 -31 -15 62 0 98 3 109 28
109 12 0 14 -12 8 -69z m-1 -218 c11 5 14 -2 13 -28 -1 -28 -5 -34 -30 -37
-27 -4 -28 -3 -28 40 0 38 2 43 15 32 8 -7 21 -10 30 -7z"/>
<path d="M2415 4092 c-3 -7 -9 -10 -15 -7 -5 3 -10 2 -10 -4 0 -5 4 -12 9 -15
12 -8 81 17 78 28 -3 15 -56 13 -62 -2z"/>
<path d="M2123 3848 c-12 -6 -23 -19 -26 -29 -3 -11 -11 -19 -19 -19 -7 0 -25
-19 -40 -43 -26 -40 -57 -80 -92 -119 -21 -23 -20 -30 4 -51 18 -15 24 -39 24
-99 0 -9 2 -17 5 -16 19 2 22 -4 10 -18 -11 -13 -11 -15 2 -13 22 3 49 -11 49
-27 0 -8 5 -14 11 -14 6 0 8 7 5 16 -3 8 1 28 9 45 15 27 19 29 75 29 60 0 60
0 54 26 -6 25 -5 26 17 21 13 -3 30 -2 38 2 8 6 -3 11 -35 16 -27 4 -43 10
-36 12 6 3 12 12 12 21 0 13 4 11 20 -6 24 -25 38 -27 75 -10 16 7 28 23 32
40 l6 28 36 -22 c20 -12 40 -28 44 -35 11 -18 27 -16 27 2 0 8 -9 20 -20 27
-32 20 -23 30 10 13 32 -17 55 -58 45 -83 -3 -7 -2 -19 2 -25 4 -7 6 -39 5
-72 -3 -50 -11 -73 -48 -137 -59 -104 -58 -123 6 -151 27 -12 50 -27 50 -32 0
-11 36 -45 46 -45 4 0 4 9 1 19 -4 15 3 22 27 31 69 26 76 30 76 45 0 9 -6 15
-12 14 -31 -4 -40 4 -59 46 -18 41 -19 49 -6 87 12 36 15 160 8 294 -1 6 -19
32 -41 57 -22 25 -40 56 -40 69 0 16 -3 19 -9 10 -6 -11 -18 -4 -52 26 -50 47
-153 78 -219 67 -49 -8 -56 -8 -52 5 2 12 3 12 -25 -2z m182 -132 c19 -10 19
-11 -3 -14 -16 -2 -22 -8 -18 -18 3 -8 -1 -14 -9 -14 -8 0 -15 5 -15 11 0 8
-19 10 -60 6 -33 -3 -62 -2 -65 3 -6 9 32 35 60 43 26 6 85 -3 110 -17z m65
-66 c8 -5 11 -10 5 -10 -5 0 -17 5 -25 10 -8 5 -10 10 -5 10 6 0 17 -5 25 -10z
m-75 -20 c3 -5 -1 -10 -10 -10 -9 0 -13 5 -10 10 3 6 8 10 10 10 2 0 7 -4 10
-10z m193 -340 c-1 -33 -12 -47 -23 -30 -9 14 3 60 15 60 5 0 8 -14 8 -30z"/>
<path d="M2913 3793 c-29 -3 -46 -10 -53 -24 -8 -15 -15 -17 -29 -9 -43 22
-42 -38 0 -81 l31 -32 -26 -14 c-19 -10 -26 -21 -26 -43 0 -34 22 -40 56 -16
17 13 20 12 34 -17 12 -26 21 -32 50 -34 40 -2 60 11 60 38 0 40 33 14 46 -35
6 -27 9 -28 48 -22 47 8 71 27 63 50 -11 28 -81 65 -157 84 -53 13 -76 23 -78
35 -2 10 3 17 11 17 9 0 17 4 19 9 2 5 19 11 39 12 28 3 44 -4 75 -29 21 -18
54 -35 74 -38 19 -3 41 -14 49 -23 12 -14 13 -13 7 9 -3 14 -6 28 -6 33 0 4
-10 7 -22 7 -28 0 -42 10 -51 33 -4 11 -1 17 8 17 26 0 16 17 -27 46 -45 29
-100 37 -195 27z m118 -173 c5 0 9 -4 9 -9 0 -12 -38 -2 -47 12 -4 7 0 8 11 4
10 -4 22 -7 27 -7z m49 -30 c13 -8 13 -10 -2 -10 -9 0 -20 5 -23 10 -8 13 5
13 25 0z m-100 -10 c0 -5 -4 -10 -10 -10 -5 0 -10 5 -10 10 0 6 5 10 10 10 6
0 10 -4 10 -10z"/>
<path d="M2845 3530 c11 -5 27 -9 35 -9 13 -1 13 0 0 9 -8 5 -24 9 -35 9 l-20
0 20 -9z"/>
<path d="M2867 3499 c7 -7 15 -10 18 -7 3 3 -2 9 -12 12 -14 6 -15 5 -6 -5z"/>
<path d="M3365 3479 c-4 -6 -5 -12 -2 -15 2 -3 7 2 10 11 7 17 1 20 -8 4z"/>
<path d="M3481 3473 c-23 -16 -23 -17 -5 -24 12 -4 26 -1 37 9 36 32 9 45 -32
15z"/>
<path d="M2683 3213 c-26 -10 -12 -22 32 -29 52 -7 64 -2 45 21 -12 14 -52 19
-77 8z"/>
<path d="M2740 3160 c0 -5 6 -10 14 -10 8 0 18 5 21 10 3 6 -3 10 -14 10 -12
0 -21 -4 -21 -10z"/>
<path d="M2280 3100 c0 -5 5 -10 10 -10 6 0 10 5 10 10 0 6 -4 10 -10 10 -5 0
-10 -4 -10 -10z"/>
<path d="M3193 1995 c-16 -17 -17 -29 -2 -19 8 4 9 0 4 -15 -8 -26 10 -28 24
-2 14 26 -8 56 -26 36z"/>
<path d="M1976 1801 c10 -10 21 -14 23 -8 4 10 -17 27 -33 27 -5 0 -1 -8 10
-19z"/>
<path d="M2950 1811 c0 -6 4 -13 10 -16 6 -3 7 1 4 9 -7 18 -14 21 -14 7z"/>
<path d="M4312 1305 c2 -22 8 -39 13 -38 17 4 17 37 0 58 -14 19 -15 18 -13
-20z"/>
<path d="M875 871 c-6 -11 13 -26 22 -17 4 3 1 6 -6 6 -7 0 -9 5 -6 10 3 6 4
10 1 10 -3 0 -7 -4 -11 -9z"/>
<path d="M980 850 c0 -5 5 -10 10 -10 6 0 10 5 10 10 0 6 -4 10 -10 10 -5 0
-10 -4 -10 -10z"/>
<path d="M853 825 c-3 -9 -3 -19 1 -22 8 -9 37 18 30 28 -8 14 -24 11 -31 -6z"/>
<path d="M323 115 c0 -8 4 -15 9 -15 4 0 8 4 8 9 0 6 -4 12 -8 15 -5 3 -9 -1
-9 -9z"/>
<path d="M2520 4990 c-9 -6 -10 -10 -3 -10 6 0 15 5 18 10 8 12 4 12 -15 0z"/>
<path d="M2745 4990 c-3 -6 1 -7 9 -4 18 7 21 14 7 14 -6 0 -13 -4 -16 -10z"/>
<path d="M3030 4910 c10 -6 11 -10 3 -10 -7 0 -13 -4 -13 -8 0 -5 7 -9 15 -9
8 0 12 4 9 9 -3 4 1 8 8 8 9 0 9 3 -2 10 -8 5 -19 10 -25 10 -5 0 -3 -5 5 -10z"/>
<path d="M1590 1915 c-7 -8 -10 -15 -7 -15 10 0 -25 -114 -49 -162 -25 -49
-48 -68 -83 -68 -19 0 -19 1 5 56 14 31 23 61 21 67 -4 12 -70 -103 -82 -141
-7 -26 -58 -52 -99 -52 -13 0 -34 -9 -47 -21 -19 -16 -20 -18 -4 -11 28 14
124 26 106 14 -9 -7 -12 -19 -7 -38 l6 -29 -19 23 c-22 26 -46 30 -37 6 3 -9
9 -27 12 -40 8 -30 17 -30 54 -2 23 16 29 27 24 42 -6 17 -4 19 7 10 8 -6 20
-13 28 -16 22 -7 -205 -138 -238 -138 -5 0 -14 14 -20 32 -9 26 -8 35 4 47 13
13 16 11 26 -16 13 -38 42 -35 33 3 -5 20 -2 24 15 24 12 0 21 -6 21 -15 0
-16 18 -20 35 -7 6 4 2 22 -11 48 -16 32 -24 39 -39 34 -13 -5 -15 -9 -6 -14
9 -6 9 -11 0 -22 -6 -8 -15 -14 -19 -14 -13 0 -21 32 -12 44 11 14 33 76 27
76 -3 0 -13 -17 -24 -39 -11 -21 -33 -49 -49 -63 -25 -21 -56 -98 -33 -84 4 3
15 -10 24 -29 l16 -34 134 68 c84 42 131 61 124 50 -6 -10 -14 -16 -18 -13 -4
2 -20 -6 -34 -19 -26 -22 -26 -23 -8 -39 15 -14 20 -14 31 -2 7 8 8 14 2 14
-5 0 -10 5 -10 11 0 8 5 8 15 -1 13 -11 19 -9 34 9 11 12 23 23 28 23 23 2 33
11 23 23 -5 6 -6 15 -2 20 4 4 -4 5 -17 2 -23 -6 -23 -6 -3 13 11 10 51 34 88
53 38 19 80 43 92 54 l24 19 -23 47 c-25 51 -33 55 -67 31 -13 -9 -25 -14 -28
-12 -2 3 6 29 19 59 22 49 44 149 34 149 -3 0 -10 -7 -17 -15z m38 -210 c17
-36 15 -53 -7 -64 -16 -9 -18 -8 -14 7 2 10 -2 24 -11 31 -12 10 -21 9 -45 -4
-47 -24 -41 5 7 33 48 28 56 27 70 -3z m-153 -62 c-11 -10 -25 -23 -31 -30 -6
-7 -16 -8 -24 -3 -12 7 -10 13 9 29 13 12 33 21 45 21 20 0 20 0 1 -17z m105
2 c16 -19 8 -29 -42 -50 l-38 -15 12 25 c8 18 14 22 19 13 6 -9 11 -9 23 1 12
11 14 17 5 27 -7 9 -7 14 -1 14 5 0 15 -7 22 -15z m-140 -65 c0 -5 -2 -10 -4
-10 -3 0 -8 5 -11 10 -3 6 -1 10 4 10 6 0 11 -4 11 -10z"/>
<path d="M3411 1739 c-30 -47 -33 -69 -9 -69 5 0 50 -24 98 -52 49 -29 137
-80 195 -113 59 -33 123 -70 142 -83 19 -13 37 -21 39 -19 13 12 54 101 54
115 -1 9 -14 -9 -31 -41 l-30 -58 -47 27 c-26 16 -76 44 -112 65 -36 20 -110
62 -165 94 -55 32 -110 63 -121 69 l-22 12 26 43 c17 29 29 40 40 36 12 -4 13
-3 2 10 -19 23 -26 19 -59 -36z"/>
<path d="M3505 1740 c10 -11 20 -20 23 -20 3 0 -3 9 -13 20 -10 11 -20 20 -23
20 -3 0 3 -9 13 -20z"/>
<path d="M3464 1715 c-13 -20 -14 -29 -5 -38 9 -9 14 -9 19 0 10 16 37 -1 37
-23 0 -29 19 -26 37 5 15 27 15 30 0 36 -9 3 -18 2 -20 -4 -5 -16 -32 0 -32
19 0 30 -18 33 -36 5z"/>
<path d="M3550 1710 c8 -5 20 -10 25 -10 6 0 3 5 -5 10 -8 5 -19 10 -25 10 -5
0 -3 -5 5 -10z"/>
<path d="M3590 1697 c0 -3 38 -19 85 -36 47 -17 103 -40 125 -51 43 -22 54
-25 46 -11 -9 13 -105 57 -168 75 -32 9 -64 19 -73 22 -8 3 -15 4 -15 1z"/>
<path d="M3920 1695 c0 -15 18 -40 24 -34 3 3 -1 14 -9 25 -8 10 -14 15 -15 9z"/>
<path d="M3566 1646 c-10 -16 -12 -27 -5 -31 13 -9 35 10 42 35 7 28 -17 25
-37 -4z"/>
<path d="M3367 1653 c-13 -12 -7 -23 12 -23 10 0 21 -6 24 -14 3 -7 24 -23 46
-35 37 -19 42 -19 48 -5 6 16 -15 37 -29 28 -4 -3 -8 -1 -8 5 0 6 -18 20 -40
31 -44 23 -44 23 -53 13z"/>
<path d="M3616 1625 c-20 -30 -20 -35 -2 -35 17 0 48 39 40 52 -9 14 -21 9
-38 -17z"/>
<path d="M1636 1615 c-8 -8 -19 -15 -25 -15 -6 0 -11 -4 -11 -10 0 -5 -7 -10
-15 -10 -13 0 -37 -12 -73 -36 -2 -1 -1 -12 3 -23 5 -18 10 -19 26 -10 12 6
18 17 15 25 -4 12 -2 12 14 4 16 -8 26 -6 50 11 16 12 26 27 23 32 -4 6 0 8 9
4 11 -4 17 2 21 19 5 28 -13 32 -37 9z"/>
<path d="M3656 1593 c-9 -32 15 -53 26 -24 4 11 11 22 17 26 16 9 4 25 -19 25
-11 0 -20 -10 -24 -27z"/>
<path d="M3706 1575 c-20 -21 -11 -41 25 -54 23 -8 32 -7 44 6 17 16 16 34 -2
40 -6 2 -13 -5 -16 -17 -7 -26 -27 -26 -27 0 0 11 5 20 10 20 6 0 10 5 10 10
0 15 -27 12 -44 -5z"/>
<path d="M3951 1574 c0 -11 3 -14 6 -6 3 7 2 16 -1 19 -3 4 -6 -2 -5 -13z"/>
<path d="M3530 1543 c0 -21 3 -24 12 -15 17 17 31 15 24 -3 -3 -9 0 -15 9 -15
8 0 15 -5 15 -11 0 -8 5 -8 15 1 19 16 19 30 1 30 -7 0 -25 9 -39 20 -33 26
-37 25 -37 -7z"/>
<path d="M3793 1531 c-27 -43 -5 -57 28 -18 l18 22 1 -22 c0 -12 -5 -25 -10
-28 -11 -7 -4 -25 9 -25 14 0 35 60 25 70 -5 5 -20 11 -34 15 -19 4 -28 1 -37
-14z"/>
<path d="M3616 1495 c-7 -20 23 -33 34 -14 5 7 6 17 4 21 -9 13 -32 9 -38 -7z"/>
<path d="M3687 1456 c-7 -16 1 -26 20 -26 7 0 13 9 13 20 0 23 -25 27 -33 6z"/>
<path d="M3733 1430 c-2 -24 3 -25 22 -6 12 12 12 15 -1 20 -9 3 -17 6 -18 6
-1 0 -2 -9 -3 -20z"/>
<path d="M1284 1405 c-4 -8 -12 -15 -19 -15 -16 0 -75 -30 -75 -38 0 -4 5 -14
10 -22 9 -13 12 -13 21 3 6 11 17 16 28 12 10 -3 24 1 31 10 7 8 18 15 24 15
22 0 37 17 30 33 -8 21 -43 22 -50 2z"/>
<path d="M3764 1409 c-3 -6 0 -15 7 -20 22 -14 29 -11 29 11 0 21 -24 27 -36
9z"/>
<path d="M3810 1380 c0 -23 13 -26 29 -6 9 11 8 15 -5 20 -23 9 -24 8 -24 -14z"/>
<path d="M3950 1268 c-23 -112 -71 -451 -70 -509 0 -36 14 -44 98 -56 40 -6
111 -22 158 -35 76 -20 84 -25 79 -43 -13 -39 -18 -128 -8 -122 19 12 111 181
166 305 31 68 85 176 120 240 68 122 110 217 104 235 -3 10 -77 -103 -77 -118
0 -3 -13 -26 -29 -49 -17 -24 -48 -77 -70 -119 -38 -71 -90 -157 -97 -157 -1
0 -14 26 -29 57 -24 54 -57 100 -134 189 -64 73 -115 136 -151 185 -19 27 -38
49 -42 49 -3 0 -11 -24 -18 -52z m85 -338 c5 -14 15 -20 38 -20 18 -1 43 -7
57 -15 22 -12 27 -11 43 2 21 19 35 10 18 -11 -10 -12 -10 -27 -2 -66 17 -79
17 -80 -26 -64 -21 7 -47 13 -58 14 -12 0 -26 5 -32 11 -5 5 -36 13 -67 16
-31 3 -59 10 -62 15 -4 6 13 29 36 53 32 33 40 48 35 64 -3 12 -2 21 4 21 5 0
13 -9 16 -20z"/>
<path d="M4010 844 c0 -9 5 -14 12 -12 18 6 21 28 4 28 -9 0 -16 -7 -16 -16z"/>
<path d="M4145 820 c-4 -6 -3 -16 3 -22 6 -6 12 -6 17 2 4 6 3 16 -3 22 -6 6
-12 6 -17 -2z"/>
<path d="M2150 1185 c0 -24 -4 -33 -13 -29 -24 9 -66 -14 -73 -40 -14 -57 17
-83 86 -71 38 6 40 8 40 44 0 71 -12 131 -26 131 -9 0 -14 -12 -14 -35z m0
-70 c18 -21 5 -45 -25 -45 -14 0 -28 7 -31 15 -7 17 12 45 31 45 7 0 18 -7 25
-15z"/>
<path d="M2017 1193 c-13 -12 -7 -33 8 -33 8 0 15 9 15 20 0 20 -11 26 -23 13z"/>
<path d="M2880 1170 c-35 -30 -23 -43 14 -15 17 13 21 12 32 -3 12 -16 14 -16
43 1 30 18 31 18 31 -2 0 -12 7 -21 15 -21 11 0 15 11 15 36 0 32 -3 36 -20
30 -11 -3 -30 -9 -42 -13 -15 -4 -19 -3 -14 5 15 25 -41 11 -74 -18z"/>
<path d="M3042 1158 c3 -21 11 -24 73 -30 76 -7 195 -38 195 -50 0 -5 7 -8 15
-8 8 0 15 7 15 15 0 8 6 15 13 16 6 0 2 5 -11 12 -19 8 -25 8 -33 -4 -7 -12
-9 -11 -9 3 0 23 -65 44 -85 28 -20 -16 -45 -5 -45 20 0 18 -6 20 -66 20 -62
0 -65 -1 -62 -22z m98 -5 c0 -14 -28 -17 -54 -7 -29 11 -17 24 19 21 20 -1 35
-7 35 -14z"/>
<path d="M1750 1116 c0 -28 -4 -36 -18 -36 -43 0 -85 -95 -52 -115 6 -4 8 -11
5 -16 -4 -5 -1 -9 4 -9 6 0 11 4 11 9 0 5 20 17 45 28 25 10 45 21 45 25 0 3
9 4 20 1 17 -5 20 0 20 31 0 25 6 40 20 48 23 14 27 38 7 38 -25 0 -57 -40
-58 -73 -1 -21 -5 -10 -13 32 -12 72 -36 96 -36 37z m4 -74 c7 -12 -33 -54
-45 -47 -13 8 -11 29 3 43 14 14 35 16 42 4z"/>
<path d="M2024 1142 c-15 -11 -5 -112 12 -112 10 0 14 13 14 48 0 51 -10 75
-26 64z"/>
<path d="M1891 1106 c-28 -29 -25 -52 10 -79 22 -15 33 -17 55 -10 41 13 62
53 46 87 -16 36 -78 37 -111 2z m78 -15 c13 -24 -8 -55 -35 -49 -23 4 -30 33
-14 53 17 20 37 19 49 -4z"/>
<path d="M3368 1088 c-9 -23 3 -37 39 -49 29 -9 37 -9 44 2 14 23 10 35 -16
47 -34 16 -62 15 -67 0z"/>
<path d="M3555 1075 c16 -7 32 -22 35 -34 l5 -21 35 21 c32 20 33 22 15 35
-11 8 -41 14 -69 13 -51 -1 -51 -1 -21 -14z"/>
<path d="M3477 1073 c-13 -13 -7 -53 8 -53 8 0 15 7 15 15 0 8 7 15 15 15 9 0
15 -9 15 -25 0 -16 6 -25 15 -25 9 0 15 10 15 26 0 19 -8 28 -35 40 -40 16
-39 16 -48 7z"/>
<path d="M3090 1060 c0 -5 5 -10 10 -10 6 0 10 5 10 10 0 6 -4 10 -10 10 -5 0
-10 -4 -10 -10z"/>
<path d="M3140 1060 c0 -5 5 -10 10 -10 6 0 10 5 10 10 0 6 -4 10 -10 10 -5 0
-10 -4 -10 -10z"/>
<path d="M1415 1013 c-4 -21 -11 -43 -15 -48 -5 -6 -12 -34 -16 -63 -6 -45 -4
-52 9 -46 8 3 18 16 21 29 8 32 74 56 88 31 8 -15 38 -23 38 -11 0 10 -54 110
-68 128 -26 29 -49 21 -57 -20z m37 -59 c-21 -15 -21 -15 -15 20 6 27 7 28 19
11 12 -15 11 -20 -4 -31z"/>
<path d="M1583 1039 c-32 -12 -44 -42 -37 -89 5 -30 11 -40 23 -38 12 2 15 14
12 51 -2 42 0 47 18 47 14 0 22 -8 27 -27 3 -16 7 -33 9 -40 4 -13 -65 -73
-83 -73 -6 0 -12 -3 -14 -7 -4 -11 -64 -38 -117 -54 -25 -7 -57 -24 -72 -36
-15 -13 -33 -23 -40 -23 -7 0 -10 -3 -6 -6 14 -14 -66 -69 -84 -58 -8 4 -9 3
-5 -4 4 -7 2 -12 -5 -12 -8 0 -10 11 -6 35 3 19 2 35 -4 35 -5 0 -9 -21 -9
-47 -1 -61 -39 -118 -41 -60 0 16 -6 10 -20 -23 -11 -25 -25 -49 -32 -55 -19
-15 -110 -136 -130 -172 -10 -18 -17 -51 -16 -80 0 -53 6 -46 33 45 19 65 63
131 132 199 47 46 53 50 56 30 3 -20 5 -19 25 13 12 19 33 48 47 63 l24 28 6
-43 c4 -24 16 -78 28 -122 17 -62 19 -84 11 -107 -7 -19 -8 -43 -1 -74 9 -41
13 -46 31 -41 12 3 87 19 167 37 80 17 159 37 177 45 18 8 74 18 125 23 533
51 505 47 510 64 3 6 -1 86 -8 177 -7 91 -13 180 -13 199 l-1 33 -92 -7 c-192
-13 -572 -66 -694 -95 -69 -16 -129 -30 -133 -30 -11 1 94 50 107 50 6 0 12 5
12 10 0 6 11 15 25 20 14 5 25 15 25 21 0 6 7 9 15 5 9 -3 15 0 15 9 0 8 5 15
11 15 5 0 7 5 4 10 -3 6 2 10 12 10 23 1 55 25 46 34 -4 4 1 4 12 0 15 -6 17
-4 11 12 -5 10 -12 33 -16 50 -4 18 -10 36 -14 42 -9 15 -39 20 -63 11z m425
-313 c34 -34 37 -41 37 -95 0 -45 -5 -67 -21 -88 -50 -68 -136 -97 -196 -68
-41 21 -88 64 -88 82 0 7 -4 13 -10 13 -5 0 -11 19 -11 43 -1 39 -2 40 -9 12
-4 -16 -8 -24 -9 -16 -1 11 -5 10 -15 -5 -13 -17 -13 -15 -3 19 7 20 15 37 19
37 5 0 8 9 8 20 0 11 7 23 16 27 15 6 15 8 -2 20 -17 12 -17 13 3 13 12 0 23
-6 25 -12 3 -9 12 -7 33 6 42 28 74 36 133 32 46 -2 58 -8 90 -40z"/>
<path d="M3280 1040 c0 -5 5 -10 11 -10 5 0 7 5 4 10 -3 6 -8 10 -11 10 -2 0
-4 -4 -4 -10z"/>
<path d="M1180 969 c0 -5 5 -7 10 -4 6 3 10 8 10 11 0 2 -4 4 -10 4 -5 0 -10
-5 -10 -11z"/>
<path d="M3480 950 c0 -5 5 -10 10 -10 6 0 10 5 10 10 0 6 -4 10 -10 10 -5 0
-10 -4 -10 -10z"/>
<path d="M3522 938 c5 -15 28 -23 28 -10 0 5 -7 13 -16 16 -10 4 -14 1 -12 -6z"/>
<path d="M2767 874 c-4 -4 -7 -103 -7 -220 0 -206 1 -213 21 -219 16 -6 106
-7 172 -4 57 4 422 -26 569 -46 101 -14 196 -25 212 -25 l29 0 -4 133 c-3 100
-1 131 8 130 7 -2 10 3 7 10 -3 8 -1 39 4 70 11 68 9 70 -73 91 -134 33 -303
50 -673 67 -128 5 -239 12 -245 15 -7 2 -16 1 -20 -2z m381 -167 c3 -72 1 -77
-18 -77 -18 0 -20 6 -20 73 0 41 3 77 7 81 18 18 28 -7 31 -77z m272 -23 c0
-67 -2 -74 -20 -74 -18 0 -20 7 -20 68 0 64 12 98 32 86 4 -3 8 -39 8 -80z
m-345 16 c0 -25 -5 -45 -12 -47 -16 -6 -27 39 -19 73 10 40 31 23 31 -26z
m143 -8 c3 -37 1 -42 -17 -42 -18 0 -21 6 -21 38 0 68 33 71 38 4z m132 -7 c0
-57 -26 -63 -33 -7 -5 42 -2 52 19 52 10 0 14 -12 14 -45z m-340 5 c0 -20 -5
-30 -15 -30 -10 0 -15 10 -15 30 0 20 5 30 15 30 10 0 15 -10 15 -30z m470
-25 c0 -32 -4 -45 -14 -45 -19 0 -24 18 -19 58 8 51 33 41 33 -13z m-200 4 c0
-38 -24 -35 -28 4 -2 19 1 27 12 27 11 0 16 -10 16 -31z m268 -27 c2 -15 -2
-22 -12 -22 -11 0 -16 9 -16 26 0 31 23 28 28 -4z m-433 -62 c0 -8 -10 -16
-22 -18 -13 -2 -23 -10 -23 -17 0 -7 10 -15 23 -17 33 -5 28 -32 -8 -36 -19
-3 -33 2 -42 14 -16 23 -17 66 -1 82 18 18 73 11 73 -8z m51 12 c9 -6 11 -37
5 -89 0 -7 -10 -13 -21 -13 -17 0 -20 7 -20 48 0 59 9 72 36 54z m104 -17 c0
-8 -5 -15 -11 -15 -8 0 -8 -4 1 -14 6 -8 10 -25 8 -38 -4 -30 -64 -40 -75 -12
-4 10 -2 19 5 22 9 3 9 9 1 23 -7 15 -7 24 2 35 16 19 69 19 69 -1z m103 -9
c7 -18 -1 -26 -25 -26 -24 0 -23 -21 2 -27 28 -7 26 -43 -2 -43 -44 0 -70 47
-52 94 8 20 70 22 77 2z m113 -22 c27 -40 9 -79 -35 -79 -46 0 -77 39 -62 78
9 22 17 27 46 27 26 0 39 -6 51 -26z"/>
<path d="M3430 515 c0 -8 7 -15 15 -15 8 0 15 7 15 15 0 8 -7 15 -15 15 -8 0
-15 -7 -15 -15z"/>
<path d="M3790 608 c0 -16 5 -28 10 -28 6 0 10 -9 10 -20 0 -11 4 -20 9 -20
13 0 19 32 8 45 -4 6 -14 19 -22 30 -14 19 -14 19 -15 -7z"/>
<path d="M3860 531 c0 -12 4 -20 9 -17 5 3 21 -6 35 -19 28 -26 73 -35 60 -12
-17 29 -37 45 -50 40 -8 -3 -24 3 -34 12 -19 17 -20 17 -20 -4z"/>
<path d="M1185 428 c4 -18 11 -37 15 -43 5 -5 8 -14 8 -20 0 -5 6 -11 12 -13
8 -3 10 3 5 19 -10 33 -36 89 -42 89 -2 0 -1 -15 2 -32z"/>
<path d="M3920 413 c12 -21 37 -56 56 -77 36 -41 39 -62 8 -59 -10 1 -27 -3
-38 -9 -17 -9 -17 -12 -5 -22 34 -26 51 -68 45 -107 -7 -45 11 -132 26 -123 6
4 8 23 5 43 -3 20 -3 51 1 70 9 42 32 54 32 17 0 -21 5 -26 25 -26 14 0 25 5
25 10 0 6 -4 10 -10 10 -5 0 -10 4 -10 9 0 5 9 7 21 4 15 -4 22 0 26 17 9 35
21 3 17 -44 -5 -51 10 -22 20 39 l7 41 -37 -1 c-21 0 -39 -6 -42 -13 -2 -6 -9
-12 -15 -12 -8 0 -7 4 1 12 20 20 14 63 -15 104 -29 41 -144 154 -157 154 -4
0 2 -17 14 -37z m195 -223 c3 -5 1 -10 -4 -10 -6 0 -11 5 -11 10 0 6 2 10 4
10 3 0 8 -4 11 -10z"/>
<path d="M1257 365 c-15 -30 -34 -55 -42 -55 -8 0 -15 -5 -15 -10 0 -7 -6 -7
-20 0 -16 9 -20 8 -20 -5 0 -8 6 -15 14 -15 23 0 24 -9 12 -107 -9 -78 -13
-91 -26 -83 -12 8 -13 11 -1 19 8 5 9 11 3 15 -5 3 -6 22 -2 47 4 23 4 37 -1
32 -13 -13 -23 -125 -15 -167 l7 -36 54 0 c41 0 55 4 55 14 0 8 3 22 7 32 4
11 3 15 -4 11 -20 -12 -62 11 -69 37 -9 38 63 246 85 246 4 0 8 18 9 40 2 22
1 40 -1 40 -1 0 -15 -25 -30 -55z"/>
<path d="M1140 389 c0 -5 9 -9 20 -9 11 0 20 4 20 8 0 4 -9 8 -20 9 -11 1 -20
-2 -20 -8z"/>
<path d="M1161 344 c0 -11 3 -14 6 -6 3 7 2 16 -1 19 -3 4 -6 -2 -5 -13z"/>
<path d="M1614 322 c-11 -9 -41 -28 -67 -42 -26 -14 -44 -26 -39 -28 16 -5
140 73 131 83 -3 2 -14 -3 -25 -13z"/>
<path d="M2783 283 c-23 -4 -23 -7 -23 -144 l0 -139 65 0 c62 0 65 1 55 19
-15 29 -12 73 6 99 14 20 22 22 72 18 32 -3 58 -5 60 -5 1 -1 2 -30 2 -66 0
-37 4 -65 10 -65 6 0 10 40 10 101 0 98 0 100 23 97 21 -3 22 -9 28 -103 l5
-100 2 98 2 97 29 0 29 0 -5 -95 -5 -95 25 0 26 0 -20 57 c-10 31 -19 58 -19
60 0 2 12 3 27 1 21 -2 29 -10 36 -38 l10 -35 10 33 c8 27 15 33 35 30 19 -2
28 -12 37 -37 l11 -34 10 34 c8 26 15 34 33 34 23 0 32 -10 47 -50 6 -17 8
-16 17 14 l10 33 76 -7 c42 -4 82 -12 89 -17 6 -6 12 -26 12 -44 l0 -34 53 0
52 0 0 110 0 110 -40 5 c-22 3 -155 14 -295 26 -140 11 -304 24 -365 29 -112
10 -202 11 -242 3z"/>
<path d="M1160 249 c0 -11 4 -18 10 -14 5 3 7 12 3 20 -7 21 -13 19 -13 -6z"/>
<path d="M2265 263 c-22 -2 -121 -10 -220 -18 -286 -25 -697 -87 -737 -111 -5
-3 -1 -19 8 -35 8 -17 13 -36 11 -42 -3 -7 -8 0 -12 15 -7 29 -35 29 -35 -1 0
-14 2 -14 10 -1 8 12 10 12 16 -3 4 -10 2 -23 -5 -30 -17 -17 -13 -37 8 -37
12 0 21 8 24 22 l4 23 2 -22 1 -23 250 0 249 0 36 37 c26 26 35 31 35 19 0
-10 -5 -26 -10 -37 -10 -19 -5 -19 216 -19 l227 0 -7 82 c-11 131 -18 188 -25
186 -3 -1 -24 -3 -46 -5z m-514 -176 c-9 -35 -8 -37 18 -37 14 0 45 11 69 25
48 27 58 13 16 -26 -20 -19 -36 -24 -79 -24 -29 0 -56 2 -59 5 -9 9 12 82 25
91 18 11 19 9 10 -34z"/>
<path d="M1406 215 c-11 -8 -16 -15 -10 -15 5 0 18 7 28 15 11 8 16 15 10 15
-5 0 -18 -7 -28 -15z"/>
<path d="M1348 193 c-10 -2 -18 -9 -18 -14 0 -5 -6 -9 -14 -9 -18 0 -59 -56
-53 -73 2 -7 10 0 17 16 8 15 34 41 58 57 44 29 46 33 10 23z"/>
<path d="M1102 153 c-39 -104 -43 -153 -12 -153 12 0 20 7 20 18 1 9 3 50 6
90 3 39 3 72 1 72 -3 0 -9 -12 -15 -27z"/>
<path d="M4210 110 c0 -40 2 -71 4 -69 7 7 10 129 3 136 -4 3 -7 -27 -7 -67z"/>
<path d="M4050 96 c0 -2 7 -6 15 -10 8 -3 15 -1 15 4 0 6 -7 10 -15 10 -8 0
-15 -2 -15 -4z"/>
<path d="M2920 66 c0 -21 5 -26 26 -26 21 0 25 4 22 23 -2 14 -11 23 -25 25
-19 3 -23 -1 -23 -22z"/>
<path d="M3476 37 c-5 -15 -6 -31 -2 -34 11 -11 18 5 14 34 l-4 28 -8 -28z"/>
<path d="M3547 43 c-13 -12 -7 -43 8 -43 9 0 15 9 15 25 0 24 -10 32 -23 18z"/>
<path d="M4036 24 c-8 -22 -8 -24 8 -24 7 0 16 9 19 20 6 24 -18 28 -27 4z"/>
<path d="M4870 23 c0 -13 5 -23 10 -23 13 0 13 11 0 30 -8 12 -10 11 -10 -7z"/>
<path d="M3270 10 c0 -5 5 -10 11 -10 5 0 7 5 4 10 -3 6 -8 10 -11 10 -2 0 -4
-4 -4 -10z"/>
<path d="M3365 10 c-3 -5 -1 -10 4 -10 6 0 11 5 11 10 0 6 -2 10 -4 10 -3 0
-8 -4 -11 -10z"/>
</g>
</svg>
